<?xml version="1.0" standalone="no"?><!DOCTYPE svg PUBLIC "-//W3C//DTD SVG 1.1//EN" "http://www.w3.org/Graphics/SVG/1.1/DTD/svg11.dtd"><svg t="1524187209370" class="icon" style="" viewBox="0 0 1024 1024" version="1.1" xmlns="http://www.w3.org/2000/svg" p-id="1006" xmlns:xlink="http://www.w3.org/1999/xlink" width="200" height="200"><defs><style type="text/css"></style></defs><path d="M456.7 790.2c-85.4 0-170.8-32.5-235.8-97.5-130-130-130-341.6 0-471.7 63-63 146.7-97.7 235.8-97.7S629.6 158 692.5 221c65.5 65.4 101 156 97.5 248.6-0.7 18-2.9 36.2-6.4 53.8l-41.2-8.4c3.1-15.4 5-31.3 5.6-47 3.1-80.9-28-160.1-85.2-217.3-55.1-55.1-128.3-85.4-206.1-85.4s-151.1 30.3-206.1 85.4c-113.7 113.7-113.7 298.6 0 412.3 113.7 113.7 298.6 113.7 412.3 0l29.7 29.7c-65.1 65-150.5 97.5-235.9 97.5z" fill="#1E1E1E" p-id="1007"></path><path d="M647.709 677.498l29.698-29.698 223.231 223.231-29.698 29.699z" fill="#1E1E1E" p-id="1008"></path></svg>